<?xml version="1.0" encoding="UTF-8"?>
<svg xmlns="http://www.w3.org/2000/svg" xmlns:xlink="http://www.w3.org/1999/xlink" width="400.664pt" height="297.1pt" viewBox="0 0 400.664 297.1">
<defs>
<g>
<g id="glyph-0-0">
<path d="M 0.859375 -6.21875 L 0.859375 -0.015625 L 1.71875 -0.015625 L 1.71875 -2.5625 L 3.3125 -2.5625 C 4.3125 -2.625 5.359375 -3.296875 5.359375 -4.390625 L 5.359375 -4.484375 C 5.296875 -5.625 4.109375 -6.21875 3.09375 -6.21875 C 2.9375 -6.21875 2.78125 -6.21875 2.625 -6.21875 Z M 1.703125 -3.109375 L 1.703125 -5.6875 L 3.078125 -5.6875 C 3.765625 -5.6875 4.578125 -5.25 4.578125 -4.390625 C 4.578125 -3.890625 4.25 -3.4375 3.78125 -3.265625 C 3.4375 -3.109375 3.0625 -3.109375 2.703125 -3.109375 Z M 1.703125 -3.109375 "/>
</g>
<g id="glyph-0-1">
<path d="M 0.734375 -6.484375 L 0.734375 -0.015625 L 1.453125 -0.015625 L 1.453125 -6.484375 Z M 0.734375 -6.484375 "/>
</g>
<g id="glyph-0-2">
<path d="M 0.765625 -3.09375 C 0.890625 -3.171875 1.015625 -3.265625 1.15625 -3.34375 C 1.46875 -3.5 1.828125 -3.5625 2.1875 -3.5625 C 2.765625 -3.5625 2.9375 -2.9375 2.9375 -2.46875 L 2.9375 -2.203125 C 2 -2.203125 0.390625 -2.015625 0.390625 -1.03125 C 0.390625 -0.46875 0.796875 0.09375 1.4375 0.09375 C 1.953125 0.09375 2.546875 -0.015625 2.953125 -0.34375 L 2.953125 -0.015625 L 3.6875 -0.015625 L 3.6875 -2.140625 C 3.6875 -2.265625 3.6875 -2.40625 3.6875 -2.53125 C 3.6875 -3.359375 3.125 -4.125 2.171875 -4.125 C 1.71875 -4.125 1.28125 -4.046875 0.890625 -3.828125 C 0.796875 -3.796875 0.703125 -3.765625 0.703125 -3.671875 C 0.703125 -3.484375 0.75 -3.28125 0.765625 -3.09375 Z M 2.9375 -1.71875 L 2.9375 -1.296875 C 2.9375 -0.765625 2.515625 -0.484375 1.90625 -0.484375 C 1.609375 -0.484375 1.09375 -0.625 1.09375 -1.078125 C 1.109375 -1.5 1.84375 -1.625 2.140625 -1.65625 C 2.40625 -1.703125 2.671875 -1.71875 2.9375 -1.71875 Z M 2.9375 -1.71875 "/>
</g>
<g id="glyph-0-3">
<path d="M 1.4375 -3.40625 L 1.4375 -4.03125 L 0.71875 -4.03125 L 0.71875 -0.015625 L 1.46875 -0.015625 L 1.46875 -2.03125 C 1.46875 -2.578125 1.578125 -3.5 2.375 -3.5 C 2.96875 -3.5 3.265625 -3.15625 3.265625 -2.5625 C 3.265625 -2.453125 3.265625 -2.34375 3.265625 -2.234375 L 3.265625 -0.015625 L 4.015625 -0.015625 L 4.015625 -2.5625 C 4.015625 -2.890625 4 -3.203125 3.859375 -3.5 C 3.65625 -3.921875 3.21875 -4.078125 2.78125 -4.078125 C 2.265625 -4.078125 1.6875 -3.828125 1.4375 -3.40625 Z M 1.4375 -3.40625 "/>
</g>
<g id="glyph-0-4">
<path d="M 3.28125 -6.484375 L 3.28125 -3.59375 C 2.890625 -3.90625 2.40625 -4.078125 1.90625 -4.078125 C 0.84375 -4.078125 0.3125 -2.890625 0.3125 -1.984375 C 0.3125 -1.03125 0.859375 0.09375 1.890625 0.09375 C 2.40625 0.09375 2.875 -0.15625 3.25 -0.46875 L 3.25 -0.015625 L 4 -0.015625 L 4 -6.484375 Z M 1.0625 -1.84375 C 1.0625 -1.90625 1.046875 -1.953125 1.046875 -2 C 1.046875 -2.734375 1.5 -3.484375 2.375 -3.484375 C 2.703125 -3.484375 3.203125 -3.28125 3.25 -2.984375 C 3.265625 -2.9375 3.265625 -2.875 3.265625 -2.828125 C 3.265625 -2.71875 3.25 -2.609375 3.25 -2.515625 L 3.25 -1.1875 C 3.25 -0.953125 2.90625 -0.65625 2.65625 -0.5625 C 2.53125 -0.515625 2.40625 -0.484375 2.28125 -0.484375 C 1.5 -0.484375 1.140625 -1.171875 1.0625 -1.84375 Z M 1.0625 -1.84375 "/>
</g>
<g id="glyph-0-5">
<path d="M 3.71875 -0.96875 C 3.578125 -0.890625 3.4375 -0.78125 3.28125 -0.71875 C 3.015625 -0.578125 2.6875 -0.484375 2.375 -0.484375 C 1.65625 -0.484375 0.96875 -1.078125 0.96875 -1.96875 L 3.8125 -1.96875 C 3.8125 -2.875 3.515625 -4.125 2.1875 -4.125 C 1.03125 -4.125 0.296875 -3.0625 0.296875 -1.984375 L 0.296875 -1.953125 C 0.3125 -0.859375 1.203125 0.09375 2.328125 0.09375 C 2.796875 0.09375 3.25 -0.046875 3.640625 -0.265625 C 3.703125 -0.3125 3.765625 -0.328125 3.765625 -0.421875 C 3.765625 -0.59375 3.734375 -0.78125 3.71875 -0.96875 Z M 1.03125 -2.5 C 1.203125 -3.015625 1.546875 -3.546875 2.171875 -3.546875 C 2.78125 -3.546875 3.15625 -3.078125 3.265625 -2.5 Z M 1.03125 -2.5 "/>
</g>
<g id="glyph-0-6">
<path d="M 0.359375 -0.953125 C 0.328125 -0.796875 0.3125 -0.640625 0.28125 -0.484375 C 0.28125 -0.453125 0.265625 -0.40625 0.265625 -0.359375 C 0.265625 -0.140625 1.1875 0.03125 1.328125 0.046875 C 1.5 0.09375 1.65625 0.09375 1.828125 0.09375 C 2.515625 0.09375 3.3125 -0.171875 3.3125 -1.171875 L 3.3125 -1.25 C 3.265625 -1.796875 2.8125 -2.21875 2.296875 -2.375 C 1.875 -2.5 0.984375 -2.4375 0.984375 -3.046875 C 0.984375 -3.4375 1.375 -3.5625 1.703125 -3.5625 C 2 -3.5625 2.3125 -3.53125 2.59375 -3.421875 C 2.75 -3.375 2.890625 -3.28125 3.046875 -3.21875 L 3.15625 -3.84375 C 2.71875 -4.03125 2.28125 -4.125 1.8125 -4.125 C 1.125 -4.125 0.296875 -3.84375 0.296875 -2.953125 C 0.296875 -2.390625 0.75 -1.96875 1.265625 -1.8125 C 1.640625 -1.703125 2.625 -1.71875 2.625 -1.078125 C 2.625 -0.6875 2.21875 -0.515625 1.84375 -0.515625 C 1.3125 -0.515625 0.875 -0.65625 0.359375 -0.953125 Z M 0.359375 -0.953125 "/>
</g>
<g id="glyph-0-7">
<path d="M 0.953125 -5.109375 L 0.953125 -3.984375 L 0.171875 -3.984375 L 0.171875 -3.421875 L 0.921875 -3.421875 L 0.921875 -1.84375 C 0.921875 -1.671875 0.921875 -1.5 0.921875 -1.328125 C 0.921875 -0.921875 0.921875 0.09375 1.671875 0.09375 C 2.171875 0.09375 2.609375 -0.046875 3.0625 -0.234375 L 2.90625 -0.796875 C 2.65625 -0.640625 2.40625 -0.515625 2.09375 -0.515625 C 1.703125 -0.515625 1.625 -0.953125 1.625 -1.296875 L 1.625 -3.421875 L 2.90625 -3.421875 L 2.90625 -3.984375 L 1.625 -3.984375 L 1.625 -5.109375 Z M 0.953125 -5.109375 "/>
</g>
<g id="glyph-0-8">
<path d="M 0.71875 -3.984375 L 0.71875 -1.046875 C 0.71875 -0.765625 0.71875 -0.4375 0.921875 -0.203125 C 1.09375 0.03125 1.390625 0.09375 1.671875 0.09375 C 2.234375 0.09375 2.890625 -0.0625 3.28125 -0.421875 L 3.28125 -0.015625 L 4.015625 -0.015625 L 4.015625 -3.984375 L 3.265625 -3.984375 L 3.265625 -1.46875 C 3.265625 -1.28125 3.265625 -1.125 3.171875 -0.953125 C 2.96875 -0.59375 2.578125 -0.4375 2.1875 -0.4375 C 1.859375 -0.4375 1.46875 -0.453125 1.46875 -1.015625 L 1.46875 -3.984375 Z M 0.71875 -3.984375 "/>
</g>
<g id="glyph-0-9">
<path d="M 0.734375 -3.984375 L 0.734375 -0.015625 L 1.453125 -0.015625 L 1.453125 -3.984375 Z M 0.65625 -6.125 L 0.65625 -5.265625 L 1.515625 -5.265625 L 1.515625 -6.125 Z M 0.65625 -6.125 "/>
</g>
<g id="glyph-0-10">
<path d="M 2.15625 -4.125 C 0.984375 -4.015625 0.265625 -3.03125 0.265625 -1.984375 C 0.265625 -0.90625 1.09375 0.09375 2.296875 0.09375 C 3.390625 0.09375 4.328125 -0.828125 4.328125 -1.96875 C 4.328125 -3.078125 3.5 -4.140625 2.28125 -4.140625 C 2.234375 -4.140625 2.203125 -4.125 2.15625 -4.125 Z M 1.015625 -1.9375 C 1.015625 -1.96875 1 -2.03125 1 -2.078125 C 1 -2.84375 1.46875 -3.546875 2.28125 -3.546875 C 3.09375 -3.546875 3.578125 -2.859375 3.578125 -2.0625 C 3.578125 -1.28125 3.140625 -0.53125 2.28125 -0.53125 C 1.53125 -0.53125 1.09375 -1.125 1.015625 -1.9375 Z M 1.015625 -1.9375 "/>
</g>
<g id="glyph-0-11">
<path d="M 3.0625 2.234375 C 2.9375 2.078125 2.78125 1.96875 2.671875 1.8125 C 1.765625 0.703125 1.46875 -0.78125 1.46875 -2.203125 C 1.46875 -3.6875 1.765625 -5.40625 2.875 -6.515625 C 2.9375 -6.578125 3 -6.640625 3.0625 -6.71875 L 2.5625 -6.71875 C 2.390625 -6.71875 2.203125 -6.46875 2.0625 -6.296875 C 1.078125 -5.203125 0.71875 -3.71875 0.71875 -2.28125 C 0.71875 -0.8125 1.046875 0.71875 2.078125 1.84375 C 2.21875 2.015625 2.390625 2.234375 2.5625 2.234375 Z M 3.0625 2.234375 "/>
</g>
<g id="glyph-0-12">
<path d="M 3.765625 -0.96875 C 3.234375 -0.6875 2.890625 -0.515625 2.296875 -0.515625 L 2.21875 -0.515625 C 1.4375 -0.578125 1.0625 -1.328125 1.0625 -2 C 1.0625 -2.75 1.46875 -3.515625 2.328125 -3.515625 C 2.75 -3.515625 3.109375 -3.4375 3.484375 -3.21875 C 3.546875 -3.1875 3.609375 -3.140625 3.671875 -3.109375 C 3.6875 -3.296875 3.765625 -3.515625 3.765625 -3.6875 C 3.765625 -4.03125 2.421875 -4.125 2.328125 -4.125 C 1.1875 -4.125 0.3125 -3.140625 0.3125 -2.0625 C 0.3125 -0.921875 1.09375 0.09375 2.34375 0.09375 C 2.828125 0.09375 3.265625 -0.046875 3.6875 -0.265625 C 3.75 -0.296875 3.8125 -0.328125 3.8125 -0.40625 C 3.8125 -0.59375 3.765625 -0.78125 3.765625 -0.96875 Z M 3.765625 -0.96875 "/>
</g>
<g id="glyph-0-13">
<path d="M 1.40625 -3.21875 L 1.40625 -4.03125 L 0.734375 -4.03125 L 0.734375 -0.015625 L 1.453125 -0.015625 L 1.453125 -1.796875 C 1.453125 -2.6875 2.015625 -3.4375 3 -3.4375 L 3 -4.078125 C 2.40625 -4.078125 1.671875 -3.75 1.40625 -3.21875 Z M 1.40625 -3.21875 "/>
</g>
<g id="glyph-0-14">
<path d="M 0.515625 -6.71875 C 0.625 -6.5625 0.78125 -6.4375 0.890625 -6.296875 C 1.84375 -5.15625 2.09375 -3.609375 2.09375 -2.203125 C 2.09375 -0.734375 1.765625 0.96875 0.703125 2.03125 C 0.640625 2.09375 0.5625 2.15625 0.515625 2.234375 L 1 2.234375 C 1.171875 2.234375 1.359375 2 1.515625 1.828125 C 2.484375 0.734375 2.84375 -0.765625 2.84375 -2.1875 C 2.84375 -3.671875 2.515625 -5.1875 1.484375 -6.328125 C 1.34375 -6.484375 1.171875 -6.71875 1 -6.71875 Z M 0.515625 -6.71875 "/>
</g>
<g id="glyph-0-15">
<path d="M 0.84375 -6.1875 L 0.84375 -0.015625 L 5.125 -0.015625 L 5.125 -0.6875 L 2.0625 -0.6875 L 1.703125 -0.671875 L 1.703125 -2.9375 L 4.734375 -2.9375 L 4.734375 -3.515625 L 1.703125 -3.515625 L 1.703125 -5.578125 L 3.96875 -5.578125 L 4.140625 -5.5625 L 5 -5.5625 L 5 -6.1875 Z M 0.84375 -6.1875 "/>
</g>
<g id="glyph-0-16">
<path d="M 5.34375 -0.96875 C 5.125 -0.859375 4.9375 -0.703125 4.703125 -0.59375 C 4.375 -0.453125 4 -0.421875 3.640625 -0.421875 C 2.21875 -0.421875 1.4375 -1.84375 1.4375 -3.125 C 1.4375 -4.359375 2.203125 -5.796875 3.609375 -5.796875 C 4.109375 -5.796875 4.53125 -5.671875 4.953125 -5.4375 C 5.015625 -5.390625 5.078125 -5.34375 5.15625 -5.3125 L 5.296875 -6.09375 C 4.734375 -6.296875 4.203125 -6.40625 3.578125 -6.40625 C 1.875 -6.40625 0.59375 -4.859375 0.59375 -3.125 C 0.59375 -1.515625 1.71875 0.1875 3.59375 0.1875 C 4.21875 0.1875 4.734375 0.09375 5.3125 -0.265625 C 5.375 -0.28125 5.390625 -0.328125 5.390625 -0.375 C 5.390625 -0.578125 5.359375 -0.78125 5.34375 -0.96875 Z M 5.34375 -0.96875 "/>
</g>
<g id="glyph-0-17">
<path d="M 1.453125 -3.5625 L 1.453125 -3.984375 L 0.734375 -3.984375 L 0.734375 1.71875 L 1.484375 1.71875 L 1.484375 -0.421875 C 1.828125 -0.09375 2.265625 0.09375 2.75 0.09375 C 3.828125 0.09375 4.421875 -1.046875 4.421875 -2.015625 C 4.421875 -2.75 4.0625 -4.078125 2.96875 -4.078125 C 2.40625 -4.078125 1.921875 -3.875 1.453125 -3.5625 Z M 3.671875 -1.875 C 3.609375 -1.1875 3.09375 -0.484375 2.34375 -0.484375 C 2.015625 -0.484375 1.484375 -0.78125 1.484375 -1.140625 L 1.484375 -2.9375 C 1.53125 -3.203125 2.0625 -3.46875 2.4375 -3.46875 C 3.203125 -3.46875 3.671875 -2.703125 3.671875 -2.03125 C 3.671875 -1.96875 3.671875 -1.921875 3.671875 -1.875 Z M 3.671875 -1.875 "/>
</g>
<g id="glyph-0-18">
<path d="M 3.28125 -2.53125 L 1.140625 -2.53125 C 1.078125 -2.53125 0.984375 -2.53125 0.90625 -2.53125 C 0.71875 -2.53125 0.515625 -2.5 0.515625 -2.234375 C 0.515625 -1.984375 0.734375 -1.9375 0.921875 -1.9375 C 1 -1.9375 1.078125 -1.953125 1.15625 -1.953125 L 3.28125 -1.953125 L 3.28125 0.171875 C 3.28125 0.25 3.265625 0.328125 3.265625 0.40625 C 3.265625 0.59375 3.3125 0.828125 3.5625 0.828125 C 3.828125 0.828125 3.875 0.609375 3.875 0.421875 C 3.875 0.34375 3.859375 0.265625 3.859375 0.1875 L 3.859375 -1.953125 L 5.984375 -1.953125 C 6.0625 -1.953125 6.140625 -1.9375 6.21875 -1.9375 C 6.40625 -1.9375 6.625 -1.984375 6.625 -2.25 C 6.625 -2.5 6.390625 -2.53125 6.21875 -2.53125 C 6.140625 -2.53125 6.0625 -2.53125 5.984375 -2.53125 L 3.859375 -2.53125 L 3.859375 -4.671875 C 3.859375 -4.734375 3.875 -4.8125 3.875 -4.890625 C 3.875 -5.078125 3.828125 -5.296875 3.5625 -5.296875 C 3.3125 -5.296875 3.265625 -5.0625 3.265625 -4.890625 C 3.265625 -4.8125 3.28125 -4.734375 3.28125 -4.65625 Z M 3.28125 -2.53125 "/>
</g>
<g id="glyph-0-19">
<path d="M 0.828125 -0.296875 C 0.5 -0.15625 0.265625 0.25 0.265625 0.609375 C 0.265625 1.5625 1.625 1.828125 2.25 1.828125 C 3.09375 1.828125 4.328125 1.53125 4.328125 0.546875 C 4.25 -0.421875 3.265625 -0.640625 2.34375 -0.640625 L 1.5625 -0.640625 C 1.28125 -0.640625 1.109375 -0.859375 1.109375 -1.109375 C 1.109375 -1.21875 1.140625 -1.328125 1.1875 -1.40625 C 1.4375 -1.265625 1.6875 -1.15625 1.96875 -1.15625 L 2.03125 -1.15625 C 2.78125 -1.15625 3.484375 -1.71875 3.515625 -2.53125 L 3.515625 -2.59375 C 3.515625 -2.9375 3.421875 -3.203125 3.234375 -3.484375 L 3.65625 -3.515625 L 4.453125 -3.484375 C 4.421875 -3.75 4.40625 -4.078125 4.28125 -4.078125 L 4.25 -4.078125 C 3.796875 -4.078125 3.34375 -3.96875 2.9375 -3.8125 L 2.9375 -3.796875 C 2.84375 -3.828125 2.78125 -3.890625 2.703125 -3.921875 C 2.515625 -4.015625 2.328125 -4.0625 2.125 -4.078125 L 2.03125 -4.078125 C 1.28125 -4.078125 0.609375 -3.5 0.546875 -2.703125 L 0.546875 -2.609375 C 0.546875 -2.328125 0.640625 -2.078125 0.765625 -1.84375 C 0.796875 -1.8125 0.84375 -1.765625 0.84375 -1.71875 C 0.84375 -1.640625 0.703125 -1.46875 0.65625 -1.34375 C 0.609375 -1.21875 0.59375 -1.09375 0.59375 -0.96875 C 0.59375 -0.71875 0.671875 -0.484375 0.828125 -0.296875 Z M 1.453125 0.03125 L 2.328125 0.03125 C 2.8125 0.03125 3.671875 0.0625 3.671875 0.625 C 3.671875 1.21875 2.515625 1.296875 2.28125 1.296875 C 1.765625 1.296875 0.921875 1.125 0.921875 0.609375 C 0.921875 0.296875 1.15625 0.078125 1.453125 0.03125 Z M 1.953125 -3.53125 L 2.03125 -3.53125 C 2.59375 -3.53125 2.84375 -3.078125 2.84375 -2.640625 C 2.84375 -2.171875 2.640625 -1.765625 2.125 -1.703125 L 2.046875 -1.703125 C 1.46875 -1.703125 1.21875 -2.15625 1.21875 -2.59375 C 1.21875 -3.0625 1.4375 -3.453125 1.953125 -3.53125 Z M 1.953125 -3.53125 "/>
</g>
<g id="glyph-0-20">
<path d="M 1.4375 -3.40625 L 1.4375 -4.03125 L 0.71875 -4.03125 L 0.71875 -0.015625 L 1.46875 -0.015625 L 1.46875 -2.03125 C 1.46875 -2.59375 1.578125 -3.5 2.375 -3.5 C 2.625 -3.5 2.921875 -3.4375 3.09375 -3.234375 C 3.25 -3.046875 3.28125 -2.796875 3.28125 -2.5625 C 3.28125 -2.4375 3.265625 -2.328125 3.265625 -2.21875 L 3.265625 -0.015625 L 4.015625 -0.015625 L 4.015625 -2.03125 C 4.015625 -2.59375 4.125 -3.5 4.921875 -3.5 C 5.171875 -3.5 5.46875 -3.4375 5.640625 -3.234375 C 5.796875 -3.046875 5.828125 -2.796875 5.828125 -2.5625 C 5.828125 -2.4375 5.8125 -2.328125 5.8125 -2.21875 L 5.8125 -0.015625 L 6.5625 -0.015625 L 6.5625 -2.5625 C 6.5625 -2.890625 6.546875 -3.21875 6.40625 -3.515625 C 6.1875 -3.921875 5.75 -4.078125 5.3125 -4.078125 C 4.796875 -4.078125 4.140625 -3.78125 3.9375 -3.34375 C 3.71875 -3.859375 3.34375 -4.078125 2.765625 -4.078125 C 2.265625 -4.078125 1.6875 -3.828125 1.4375 -3.40625 Z M 1.4375 -3.40625 "/>
</g>
<g id="glyph-0-21">
<path d="M 2.15625 -4.125 C 0.984375 -4.015625 0.265625 -3.03125 0.265625 -1.984375 C 0.265625 -0.90625 1.09375 0.09375 2.296875 0.09375 C 3.390625 0.09375 4.328125 -0.828125 4.328125 -1.96875 C 4.328125 -3.078125 3.5 -4.140625 2.28125 -4.140625 C 2.234375 -4.140625 2.203125 -4.125 2.15625 -4.125 Z M 1.015625 -1.9375 C 1.015625 -1.96875 1 -2.03125 1 -2.078125 C 1 -2.84375 1.46875 -3.546875 2.28125 -3.546875 C 3.09375 -3.546875 3.578125 -2.859375 3.578125 -2.0625 C 3.578125 -1.28125 3.140625 -0.53125 2.28125 -0.53125 C 1.53125 -0.53125 1.09375 -1.125 1.015625 -1.9375 Z M 1.75 -4.578125 L 2.328125 -4.578125 L 3.6875 -5.78125 L 2.953125 -5.78125 L 2.046875 -4.890625 Z M 1.75 -4.578125 "/>
</g>
<g id="glyph-0-22">
<path d="M 1.4375 -3.40625 L 1.4375 -4.03125 L 0.71875 -4.03125 L 0.71875 -0.015625 L 1.46875 -0.015625 L 1.46875 -2.03125 C 1.46875 -2.578125 1.578125 -3.5 2.375 -3.5 C 2.96875 -3.5 3.265625 -3.15625 3.265625 -2.5625 C 3.265625 -2.453125 3.265625 -2.34375 3.265625 -2.234375 L 3.265625 -0.015625 L 4.015625 -0.015625 L 4.015625 -2.5625 C 4.015625 -2.890625 4 -3.203125 3.859375 -3.5 C 3.65625 -3.921875 3.21875 -4.078125 2.78125 -4.078125 C 2.265625 -4.078125 1.6875 -3.828125 1.4375 -3.40625 Z M 0.84375 -4.75 L 1.421875 -4.75 C 1.421875 -4.953125 1.53125 -5.1875 1.78125 -5.1875 C 2.203125 -5.1875 2.546875 -4.75 2.984375 -4.75 C 3.546875 -4.75 3.890625 -5.265625 3.890625 -5.78125 L 3.3125 -5.78125 C 3.3125 -5.5625 3.203125 -5.328125 2.953125 -5.328125 C 2.53125 -5.328125 2.1875 -5.78125 1.75 -5.78125 C 1.1875 -5.78125 0.84375 -5.25 0.84375 -4.75 Z M 0.84375 -4.75 "/>
</g>
<g id="glyph-0-23">
<path d="M 0.84375 -6.21875 L 0.84375 -2.296875 C 0.84375 -1.640625 0.96875 -1.015625 1.53125 -0.46875 C 1.96875 -0.046875 2.578125 0.1875 3.1875 0.1875 C 4.375 0.1875 5.453125 -0.75 5.453125 -2.09375 L 5.453125 -6.21875 L 4.703125 -6.21875 L 4.703125 -2.3125 C 4.703125 -1.703125 4.625 -1.046875 4.109375 -0.65625 C 3.828125 -0.453125 3.5 -0.34375 3.171875 -0.34375 C 2.15625 -0.34375 1.703125 -1.28125 1.703125 -2.1875 C 1.703125 -2.34375 1.703125 -2.5 1.703125 -2.65625 L 1.703125 -6.21875 Z M 0.84375 -6.21875 "/>
</g>
<g id="glyph-0-24">
<path d="M 0.265625 -0.015625 L 0.96875 -0.015625 L 1.609375 -1.65625 L 1.671875 -1.765625 L 1.875 -1.78125 L 4.3125 -1.78125 L 4.796875 -0.484375 L 5 -0.03125 L 5.078125 -0.015625 L 5.875 -0.015625 C 5.8125 -0.203125 5.734375 -0.40625 5.65625 -0.59375 C 4.953125 -2.328125 4.296875 -4.09375 3.625 -5.84375 L 3.515625 -6.109375 C 3.515625 -6.15625 3.5 -6.1875 3.453125 -6.21875 L 2.75 -6.21875 C 2.578125 -6.21875 2.5625 -5.984375 2.515625 -5.859375 C 1.78125 -4.109375 1.15625 -2.28125 0.453125 -0.515625 C 0.390625 -0.34375 0.296875 -0.171875 0.265625 -0.015625 Z M 1.859375 -2.3125 C 2.09375 -3.046875 2.40625 -3.75 2.65625 -4.484375 L 2.84375 -5.046875 C 2.890625 -5.203125 2.953125 -5.375 2.96875 -5.546875 L 2.984375 -5.546875 C 3 -5.40625 3.046875 -5.25 3.09375 -5.125 C 3.375 -4.171875 3.734375 -3.234375 4.109375 -2.3125 Z M 1.859375 -2.3125 "/>
</g>
<g id="glyph-0-25">
<path d="M 0.125 -3.984375 L 1.3125 -1 C 1.4375 -0.703125 1.625 0 1.8125 0 C 1.84375 0 1.890625 -0.015625 1.90625 -0.015625 L 2.328125 -0.015625 C 2.359375 -0.015625 2.390625 0 2.4375 0 C 2.625 0 2.828125 -0.78125 2.96875 -1.140625 C 3.359375 -2.09375 3.734375 -3.03125 4.109375 -3.984375 L 3.40625 -3.953125 L 2.390625 -1.375 L 2.21875 -0.84375 L 2.140625 -0.484375 L 1.953125 -1.125 L 0.96875 -3.71875 L 0.84375 -3.953125 L 0.640625 -3.984375 Z M 0.125 -3.984375 "/>
</g>
<g id="glyph-0-26">
<path d="M 0.859375 -6.21875 L 0.859375 -0.015625 L 2.703125 -0.015625 C 2.875 -0.015625 3.03125 0 3.203125 0 C 4.78125 0 6.125 -1.265625 6.125 -3.0625 C 6.125 -4.65625 5.015625 -6.21875 3.171875 -6.21875 C 3 -6.21875 2.8125 -6.21875 2.640625 -6.21875 Z M 1.703125 -0.53125 L 1.703125 -5.6875 L 2.953125 -5.6875 C 4.265625 -5.6875 5.296875 -4.75 5.296875 -3.078125 C 5.296875 -1.8125 4.59375 -0.53125 3 -0.53125 Z M 1.703125 -0.53125 "/>
</g>
<g id="glyph-0-27">
<path d="M 0.734375 -3.984375 L 0.734375 -0.015625 L 1.453125 -0.015625 L 1.453125 -3.984375 Z M 0.296875 -4.578125 L 0.875 -4.578125 L 2.25 -5.78125 L 1.5 -5.78125 L 0.59375 -4.890625 Z M 0.296875 -4.578125 "/>
</g>
<g id="glyph-0-28">
<path d="M 0.984375 -3.984375 L 0.984375 0.34375 C 0.984375 0.421875 0.984375 0.515625 0.984375 0.59375 C 0.984375 1.015625 0.65625 1.21875 0.296875 1.21875 C 0.015625 1.21875 -0.1875 1.09375 -0.421875 0.9375 L -0.5625 1.515625 C -0.265625 1.6875 0.125 1.828125 0.484375 1.828125 C 1.078125 1.828125 1.703125 1.4375 1.703125 0.5 L 1.703125 -3.984375 Z M 0.84375 -6.125 L 0.84375 -5.265625 L 1.703125 -5.265625 L 1.703125 -6.125 Z M 0.84375 -6.125 "/>
</g>
<g id="glyph-0-29">
<path d="M 0.90625 -3.984375 L 0.234375 -3.984375 L 0.234375 -3.421875 L 0.90625 -3.421875 L 0.90625 -0.015625 L 1.640625 -0.015625 L 1.640625 -3.421875 L 2.625 -3.421875 L 2.625 -3.984375 L 1.609375 -3.984375 L 1.609375 -4.875 C 1.609375 -4.96875 1.59375 -5.0625 1.59375 -5.171875 C 1.59375 -5.609375 1.84375 -6 2.515625 -6 C 2.75 -5.984375 2.9375 -5.90625 3.1875 -5.859375 L 3.1875 -6.40625 C 3.1875 -6.578125 2.65625 -6.59375 2.5 -6.59375 L 2.453125 -6.59375 C 1.53125 -6.59375 0.90625 -5.828125 0.90625 -4.875 Z M 0.90625 -3.984375 "/>
</g>
<g id="glyph-0-30">
<path d="M 0.71875 -6.484375 L 0.71875 -0.015625 L 1.46875 -0.015625 L 1.46875 -2.03125 C 1.46875 -2.578125 1.578125 -3.5 2.375 -3.5 C 2.96875 -3.5 3.265625 -3.15625 3.265625 -2.5625 C 3.265625 -2.453125 3.265625 -2.34375 3.265625 -2.234375 L 3.265625 -0.015625 L 4.015625 -0.015625 L 4.015625 -2.125 C 4.015625 -2.28125 4.015625 -2.4375 4.015625 -2.578125 C 4.015625 -3.234375 3.875 -4.078125 2.765625 -4.078125 C 2.25 -4.078125 1.78125 -3.828125 1.453125 -3.4375 L 1.453125 -6.484375 Z M 0.71875 -6.484375 "/>
</g>
<g id="glyph-1-0">
<path d="M 0.734375 -4.828125 L 0.734375 0 L 1.3125 0 L 1.328125 -4.296875 C 1.34375 -4.15625 1.40625 -4.015625 1.453125 -3.875 C 1.890625 -2.703125 2.375 -1.546875 2.84375 -0.390625 L 2.90625 -0.234375 C 2.9375 -0.1875 2.9375 -0.140625 3 -0.140625 C 3.03125 -0.140625 3.046875 -0.15625 3.078125 -0.15625 L 3.46875 -0.15625 C 3.484375 -0.171875 3.5 -0.1875 3.515625 -0.21875 L 3.578125 -0.40625 C 3.984375 -1.328125 4.359375 -2.28125 4.734375 -3.21875 C 4.8125 -3.46875 4.921875 -3.703125 5 -3.9375 C 5.046875 -4.0625 5.09375 -4.171875 5.125 -4.296875 L 5.125 0 L 5.703125 0 L 5.703125 -4.828125 L 4.9375 -4.828125 L 4.859375 -4.8125 L 4.734375 -4.53125 L 3.359375 -1.109375 L 3.21875 -0.6875 L 2.921875 -1.515625 L 1.703125 -4.515625 L 1.578125 -4.8125 L 1.5 -4.828125 Z M 0.734375 -4.828125 "/>
</g>
<g id="glyph-1-1">
<path d="M 0.703125 -3.09375 L 0.703125 -2.46875 L 1.34375 -2.46875 L 1.34375 -3.09375 Z M 0.703125 -0.640625 L 0.703125 0 L 1.34375 0 L 1.34375 -0.640625 Z M 0.703125 -0.640625 "/>
</g>
<g id="glyph-1-2">
<path d="M 0.703125 -4.828125 L 0.703125 0 L 1.28125 0 L 1.28125 -4.296875 L 3.5 -0.125 L 3.578125 -0.015625 L 3.65625 0 L 4.515625 0 L 4.515625 -4.828125 L 3.921875 -4.828125 L 3.921875 -0.546875 L 1.703125 -4.71875 L 1.640625 -4.8125 L 1.546875 -4.828125 Z M 0.703125 -4.828125 "/>
</g>
<g id="glyph-1-3">
<path d="M 0.671875 -4.828125 L 0.671875 -1.796875 C 0.671875 -1.421875 0.71875 -1.09375 0.890625 -0.78125 C 1.234375 -0.1875 1.890625 0.140625 2.5625 0.140625 C 3.453125 0.140625 4.203125 -0.46875 4.359375 -1.328125 C 4.390625 -1.484375 4.390625 -1.640625 4.390625 -1.8125 L 4.390625 -4.828125 L 3.78125 -4.828125 L 3.78125 -1.8125 C 3.78125 -1.328125 3.71875 -0.8125 3.28125 -0.5 C 3.0625 -0.34375 2.8125 -0.265625 2.5625 -0.265625 C 1.8125 -0.265625 1.375 -0.90625 1.375 -1.71875 C 1.375 -1.859375 1.375 -1.984375 1.375 -2.125 L 1.375 -4.828125 Z M 0.671875 -4.828125 "/>
</g>
<g id="glyph-1-4">
<path d="M 1.140625 -2.640625 L 1.140625 -3.140625 L 0.578125 -3.140625 L 0.578125 0 L 1.1875 0 L 1.1875 -1.578125 C 1.1875 -2.015625 1.265625 -2.703125 1.90625 -2.703125 C 2.328125 -2.703125 2.625 -2.515625 2.625 -1.96875 C 2.625 -1.890625 2.625 -1.78125 2.625 -1.703125 L 2.625 0 L 3.21875 0 L 3.21875 -1.640625 C 3.21875 -1.765625 3.234375 -1.875 3.234375 -2 C 3.234375 -2.5625 3.078125 -3.15625 2.21875 -3.15625 C 1.765625 -3.15625 1.4375 -2.984375 1.140625 -2.640625 Z M 1.140625 -2.640625 "/>
</g>
<g id="glyph-1-5">
<path d="M 0.578125 -3.09375 L 0.578125 0 L 1.171875 0 L 1.171875 -3.09375 Z M 0.515625 -4.78125 L 0.515625 -4.078125 L 1.21875 -4.078125 L 1.21875 -4.78125 Z M 0.515625 -4.78125 "/>
</g>
<g id="glyph-1-6">
<path d="M 2.640625 -4.953125 L 2.640625 -2.796875 C 2.296875 -3.015625 1.953125 -3.15625 1.53125 -3.15625 C 0.71875 -3.15625 0.25 -2.328125 0.25 -1.5625 C 0.25 -0.890625 0.640625 0.0625 1.453125 0.0625 C 1.890625 0.0625 2.296875 -0.078125 2.609375 -0.375 L 2.609375 0 L 3.21875 0 L 3.21875 -4.953125 Z M 0.859375 -1.4375 C 0.859375 -1.484375 0.84375 -1.515625 0.84375 -1.5625 C 0.84375 -2.109375 1.1875 -2.703125 1.90625 -2.703125 C 2.15625 -2.703125 2.390625 -2.609375 2.5625 -2.40625 C 2.59375 -2.375 2.609375 -2.34375 2.609375 -2.3125 L 2.609375 -0.953125 C 2.609375 -0.609375 2.0625 -0.390625 1.828125 -0.390625 C 1.21875 -0.390625 0.90625 -0.890625 0.859375 -1.4375 Z M 0.859375 -1.4375 "/>
</g>
<g id="glyph-1-7">
<path d="M 0.609375 -2.390625 C 0.984375 -2.625 1.3125 -2.75 1.75 -2.75 C 2.171875 -2.75 2.359375 -2.34375 2.359375 -1.953125 L 2.359375 -1.71875 C 1.609375 -1.71875 0.3125 -1.5625 0.3125 -0.828125 C 0.3125 -0.359375 0.65625 0.0625 1.15625 0.0625 C 1.578125 0.0625 2.015625 -0.03125 2.375 -0.265625 L 2.375 0 L 2.96875 0 L 2.96875 -1.953125 C 2.96875 -2.5 2.640625 -3.15625 1.828125 -3.203125 L 1.765625 -3.203125 C 1.390625 -3.203125 1.046875 -3.125 0.703125 -2.96875 C 0.65625 -2.953125 0.5625 -2.921875 0.5625 -2.84375 C 0.5625 -2.703125 0.609375 -2.53125 0.609375 -2.390625 Z M 2.359375 -1.328125 L 2.359375 -1.03125 C 2.359375 -0.625 2.0625 -0.390625 1.5625 -0.390625 C 1.3125 -0.390625 0.875 -0.484375 0.875 -0.828125 C 0.875 -1.171875 1.46875 -1.25 1.703125 -1.28125 C 1.921875 -1.3125 2.140625 -1.328125 2.359375 -1.328125 Z M 2.359375 -1.328125 "/>
</g>
<g id="glyph-1-8">
<path d="M 4.296875 -0.78125 C 4.15625 -0.703125 4.03125 -0.609375 3.875 -0.53125 C 3.59375 -0.390625 3.265625 -0.34375 2.953125 -0.34375 C 1.8125 -0.34375 1.171875 -1.421875 1.171875 -2.40625 C 1.171875 -3.40625 1.765625 -4.484375 2.96875 -4.484375 C 3.234375 -4.484375 3.515625 -4.421875 3.765625 -4.3125 C 3.90625 -4.25 4.015625 -4.171875 4.15625 -4.109375 L 4.265625 -4.734375 C 3.8125 -4.875 3.375 -4.984375 2.90625 -4.984375 C 1.5 -4.984375 0.46875 -3.765625 0.46875 -2.40625 C 0.46875 -1.109375 1.453125 0.140625 2.921875 0.140625 C 3.4375 0.140625 3.796875 0.03125 4.28125 -0.21875 C 4.3125 -0.234375 4.34375 -0.25 4.34375 -0.296875 C 4.34375 -0.453125 4.296875 -0.625 4.296875 -0.78125 Z M 4.296875 -0.78125 "/>
</g>
<g id="glyph-1-9">
<path d="M 1.734375 -3.203125 C 0.890625 -3.109375 0.203125 -2.421875 0.203125 -1.53125 C 0.203125 -0.71875 0.859375 0.0625 1.859375 0.0625 C 2.71875 0.0625 3.484375 -0.625 3.484375 -1.515625 C 3.484375 -2.390625 2.78125 -3.203125 1.828125 -3.203125 C 1.796875 -3.203125 1.765625 -3.203125 1.734375 -3.203125 Z M 0.8125 -1.5 C 0.8125 -1.546875 0.8125 -1.578125 0.8125 -1.625 C 0.8125 -2.21875 1.203125 -2.734375 1.84375 -2.734375 C 2.46875 -2.734375 2.875 -2.21875 2.875 -1.609375 C 2.875 -0.984375 2.5 -0.421875 1.828125 -0.421875 C 1.265625 -0.421875 0.890625 -0.859375 0.8125 -1.5 Z M 0.8125 -1.5 "/>
</g>
<g id="glyph-1-10">
<path d="M 1.140625 -2.640625 L 1.140625 -3.140625 L 0.578125 -3.140625 L 0.578125 0 L 1.1875 0 L 1.1875 -1.578125 C 1.1875 -2.015625 1.28125 -2.703125 1.90625 -2.703125 C 2.328125 -2.703125 2.640625 -2.515625 2.640625 -1.96875 C 2.640625 -1.890625 2.625 -1.78125 2.625 -1.703125 L 2.625 0 L 3.234375 0 L 3.234375 -1.578125 C 3.234375 -2.015625 3.328125 -2.703125 3.953125 -2.703125 C 4.375 -2.703125 4.6875 -2.515625 4.6875 -1.96875 C 4.6875 -1.890625 4.671875 -1.78125 4.671875 -1.703125 L 4.671875 0 L 5.28125 0 L 5.28125 -1.65625 C 5.28125 -1.765625 5.296875 -1.890625 5.296875 -2 C 5.296875 -2.28125 5.25 -2.609375 5.09375 -2.828125 C 4.90625 -3.09375 4.5625 -3.15625 4.265625 -3.15625 C 3.8125 -3.15625 3.40625 -2.9375 3.15625 -2.59375 C 3 -3.03125 2.640625 -3.15625 2.234375 -3.15625 C 1.84375 -3.15625 1.34375 -2.984375 1.140625 -2.640625 Z M 1.140625 -2.640625 "/>
</g>
<g id="glyph-1-11">
<path d="M 1.171875 -2.765625 L 1.171875 -3.09375 L 0.578125 -3.09375 L 0.578125 1.34375 L 1.1875 1.34375 L 1.1875 -0.328125 C 1.484375 -0.078125 1.828125 0.0625 2.21875 0.0625 C 3.078125 0.0625 3.546875 -0.828125 3.546875 -1.578125 C 3.546875 -2.15625 3.25 -3.15625 2.4375 -3.15625 C 1.984375 -3.15625 1.515625 -3.046875 1.171875 -2.765625 Z M 2.9375 -1.453125 C 2.890625 -0.921875 2.484375 -0.390625 1.890625 -0.390625 C 1.640625 -0.390625 1.4375 -0.515625 1.28125 -0.703125 C 1.234375 -0.765625 1.1875 -0.8125 1.1875 -0.890625 L 1.1875 -1.90625 C 1.1875 -1.984375 1.1875 -2.078125 1.1875 -2.15625 C 1.1875 -2.46875 1.625 -2.6875 1.953125 -2.6875 C 2.53125 -2.6875 2.953125 -2.109375 2.953125 -1.578125 C 2.953125 -1.53125 2.953125 -1.5 2.9375 -1.453125 Z M 2.9375 -1.453125 "/>
</g>
<g id="glyph-1-12">
<path d="M 2.984375 -0.765625 C 2.9375 -0.734375 2.875 -0.6875 2.828125 -0.65625 C 2.546875 -0.5 2.21875 -0.390625 1.890625 -0.390625 C 1.375 -0.390625 0.78125 -0.796875 0.78125 -1.53125 L 3.0625 -1.53125 C 3.0625 -2.234375 2.8125 -3.203125 1.75 -3.203125 C 0.84375 -3.203125 0.25 -2.390625 0.25 -1.53125 L 0.25 -1.515625 C 0.25 -0.640625 1 0.0625 1.875 0.0625 C 2.25 0.0625 2.609375 -0.03125 2.9375 -0.203125 C 2.984375 -0.234375 3.03125 -0.25 3.03125 -0.3125 C 3.03125 -0.46875 3 -0.609375 2.984375 -0.765625 Z M 0.828125 -1.953125 C 0.953125 -2.34375 1.265625 -2.734375 1.75 -2.734375 C 2 -2.734375 2.25 -2.640625 2.40625 -2.453125 C 2.53125 -2.296875 2.59375 -2.125 2.640625 -1.953125 Z M 0.828125 -1.953125 "/>
</g>
<g id="glyph-1-13">
<path d="M 0.765625 -3.984375 L 0.765625 -3.09375 L 0.140625 -3.09375 L 0.140625 -2.65625 L 0.75 -2.65625 L 0.75 -0.953125 C 0.75 -0.5625 0.78125 0.0625 1.359375 0.0625 C 1.75 0.0625 2.109375 -0.03125 2.46875 -0.1875 L 2.34375 -0.640625 C 2.109375 -0.5 1.921875 -0.421875 1.671875 -0.421875 C 1.328125 -0.421875 1.296875 -0.828125 1.296875 -1.0625 L 1.296875 -2.65625 L 2.34375 -2.65625 L 2.34375 -3.09375 L 1.296875 -3.09375 L 1.296875 -3.984375 Z M 0.765625 -3.984375 "/>
</g>
<g id="glyph-1-14">
<path d="M 3.03125 -0.765625 C 2.921875 -0.71875 2.8125 -0.640625 2.703125 -0.59375 C 2.4375 -0.46875 2.140625 -0.421875 1.84375 -0.421875 L 1.78125 -0.421875 C 1.15625 -0.484375 0.859375 -1.015625 0.859375 -1.5625 C 0.859375 -2.15625 1.203125 -2.71875 1.921875 -2.71875 C 2.15625 -2.71875 2.390625 -2.671875 2.59375 -2.59375 C 2.71875 -2.53125 2.828125 -2.453125 2.9375 -2.40625 C 2.984375 -2.53125 3.03125 -2.71875 3.03125 -2.84375 C 3.03125 -3.109375 1.96875 -3.203125 1.890625 -3.203125 C 0.953125 -3.203125 0.296875 -2.46875 0.25 -1.640625 L 0.25 -1.546875 C 0.25 -0.703125 0.953125 0.0625 1.84375 0.0625 C 2.25 0.0625 2.609375 -0.015625 2.96875 -0.203125 C 3.015625 -0.21875 3.078125 -0.25 3.078125 -0.3125 C 3.078125 -0.453125 3.03125 -0.625 3.03125 -0.765625 Z M 3.03125 -0.765625 "/>
</g>
<g id="glyph-1-15">
<path d="M 2.453125 1.734375 C 2.375 1.625 2.234375 1.515625 2.15625 1.40625 C 1.4375 0.546875 1.203125 -0.609375 1.203125 -1.703125 C 1.203125 -2.828125 1.40625 -4 2.140625 -4.890625 L 2.34375 -5.125 C 2.390625 -5.15625 2.421875 -5.1875 2.453125 -5.21875 L 2.078125 -5.21875 C 1.921875 -5.21875 1.765625 -5.015625 1.65625 -4.890625 C 0.859375 -4.03125 0.59375 -2.84375 0.59375 -1.703125 C 0.59375 -0.484375 0.953125 0.8125 1.890625 1.640625 C 1.953125 1.6875 1.96875 1.734375 2.078125 1.734375 Z M 2.453125 1.734375 "/>
</g>
<g id="glyph-1-16">
<path d="M 0.40625 -5.21875 C 0.4375 -5.1875 0.484375 -5.15625 0.515625 -5.125 L 0.71875 -4.890625 C 1.453125 -4 1.671875 -2.8125 1.671875 -1.703125 C 1.671875 -0.515625 1.390625 0.75 0.515625 1.625 C 0.484375 1.65625 0.4375 1.6875 0.40625 1.734375 L 0.796875 1.734375 C 0.9375 1.734375 1.0625 1.5625 1.15625 1.46875 C 1.96875 0.625 2.28125 -0.578125 2.28125 -1.703125 C 2.28125 -2.9375 1.953125 -4.234375 0.984375 -5.125 C 0.9375 -5.171875 0.890625 -5.21875 0.796875 -5.21875 Z M 0.40625 -5.21875 "/>
</g>
</g>
<clipPath id="clip-0">
<path clip-rule="nonzero" d="M 16 247 L 130 247 L 130 296.203125 L 16 296.203125 Z M 16 247 "/>
</clipPath>
<clipPath id="clip-1">
<path clip-rule="nonzero" d="M 143 247 L 257 247 L 257 296.203125 L 143 296.203125 Z M 143 247 "/>
</clipPath>
</defs>
<path fill-rule="nonzero" fill="rgb(90.979004%, 96.076965%, 91.372681%)" fill-opacity="1" stroke-width="0.79701" stroke-linecap="butt" stroke-linejoin="miter" stroke="rgb(26.275635%, 62.745667%, 27.842712%)" stroke-opacity="1" stroke-miterlimit="10" d="M 42.367672 13.466588 L -42.364794 13.466588 C -44.018225 13.466588 -45.354291 12.126604 -45.354291 10.477091 L -45.354291 -10.476818 C -45.354291 -12.126331 -44.018225 -13.466315 -42.364794 -13.466315 L 42.367672 -13.466315 C 44.017185 -13.466315 45.353251 -12.126331 45.353251 -10.476818 L 45.353251 10.477091 C 45.353251 12.126604 44.017185 13.466588 42.367672 13.466588 Z M 42.367672 13.466588 " transform="matrix(0.99698, 0, 0, -0.99698, 72.990753, 23.754042)"/>
<g fill="rgb(0%, 0%, 0%)" fill-opacity="1">
<use xlink:href="#glyph-0-0" x="43.305677" y="20.41416"/>
<use xlink:href="#glyph-0-1" x="49.180598" y="20.41416"/>
<use xlink:href="#glyph-0-2" x="51.373414" y="20.41416"/>
<use xlink:href="#glyph-0-3" x="55.786756" y="20.41416"/>
</g>
<g fill="rgb(0%, 0%, 0%)" fill-opacity="1">
<use xlink:href="#glyph-0-4" x="63.59704" y="20.41416"/>
<use xlink:href="#glyph-0-5" x="68.341138" y="20.41416"/>
</g>
<g fill="rgb(0%, 0%, 0%)" fill-opacity="1">
<use xlink:href="#glyph-0-5" x="75.480973" y="20.41416"/>
<use xlink:href="#glyph-0-6" x="79.56356" y="20.41416"/>
<use xlink:href="#glyph-0-7" x="83.084758" y="20.41416"/>
<use xlink:href="#glyph-0-8" x="86.40214" y="20.41416"/>
<use xlink:href="#glyph-0-4" x="91.146237" y="20.41416"/>
<use xlink:href="#glyph-0-9" x="95.890335" y="20.41416"/>
<use xlink:href="#glyph-0-10" x="98.08315" y="20.41416"/>
</g>
<g fill="rgb(0%, 0%, 0%)" fill-opacity="1">
<use xlink:href="#glyph-0-11" x="41.917881" y="31.340062"/>
<use xlink:href="#glyph-0-4" x="45.490034" y="31.340062"/>
<use xlink:href="#glyph-0-5" x="50.234131" y="31.340062"/>
</g>
<g fill="rgb(0%, 0%, 0%)" fill-opacity="1">
<use xlink:href="#glyph-0-8" x="57.382905" y="31.340062"/>
<use xlink:href="#glyph-0-3" x="62.127003" y="31.340062"/>
<use xlink:href="#glyph-0-2" x="66.8711" y="31.340062"/>
</g>
<g fill="rgb(0%, 0%, 0%)" fill-opacity="1">
<use xlink:href="#glyph-0-12" x="74.34169" y="31.340062"/>
<use xlink:href="#glyph-0-2" x="78.424277" y="31.340062"/>
</g>
<g fill="rgb(0%, 0%, 0%)" fill-opacity="1">
<use xlink:href="#glyph-0-13" x="82.587319" y="31.340062"/>
<use xlink:href="#glyph-0-13" x="85.72502" y="31.340062"/>
<use xlink:href="#glyph-0-5" x="88.862722" y="31.340062"/>
</g>
<g fill="rgb(0%, 0%, 0%)" fill-opacity="1">
<use xlink:href="#glyph-0-13" x="92.93637" y="31.340062"/>
<use xlink:href="#glyph-0-2" x="96.074071" y="31.340062"/>
<use xlink:href="#glyph-0-14" x="100.487414" y="31.340062"/>
</g>
<path fill-rule="nonzero" fill="rgb(88.233948%, 96.076965%, 99.607849%)" fill-opacity="1" stroke-width="0.79701" stroke-linecap="butt" stroke-linejoin="miter" stroke="rgb(0.782776%, 46.665955%, 74.116516%)" stroke-opacity="1" stroke-miterlimit="10" d="M 169.924787 13.466588 L 85.196239 13.466588 C 83.542808 13.466588 82.206741 12.126604 82.206741 10.477091 L 82.206741 -10.476818 C 82.206741 -12.126331 83.542808 -13.466315 85.196239 -13.466315 L 169.924787 -13.466315 C 171.578218 -13.466315 172.914284 -12.126331 172.914284 -10.476818 L 172.914284 10.477091 C 172.914284 12.126604 171.578218 13.466588 169.924787 13.466588 Z M 169.924787 13.466588 " transform="matrix(0.99698, 0, 0, -0.99698, 72.990753, 23.754042)"/>
<g fill="rgb(0%, 0%, 0%)" fill-opacity="1">
<use xlink:href="#glyph-0-0" x="171.544206" y="20.41416"/>
<use xlink:href="#glyph-0-1" x="177.419128" y="20.41416"/>
<use xlink:href="#glyph-0-2" x="179.611943" y="20.41416"/>
<use xlink:href="#glyph-0-3" x="184.025285" y="20.41416"/>
<use xlink:href="#glyph-0-15" x="188.769383" y="20.41416"/>
<use xlink:href="#glyph-0-6" x="194.285837" y="20.41416"/>
<use xlink:href="#glyph-0-7" x="197.807035" y="20.41416"/>
<use xlink:href="#glyph-0-8" x="201.124417" y="20.41416"/>
<use xlink:href="#glyph-0-4" x="205.868514" y="20.41416"/>
<use xlink:href="#glyph-0-9" x="210.612612" y="20.41416"/>
<use xlink:href="#glyph-0-10" x="212.805427" y="20.41416"/>
<use xlink:href="#glyph-0-15" x="217.39845" y="20.41416"/>
<use xlink:href="#glyph-0-16" x="222.914904" y="20.41416"/>
</g>
<g fill="rgb(0%, 0%, 0%)" fill-opacity="1">
<use xlink:href="#glyph-0-11" x="168.09665" y="31.340062"/>
<use xlink:href="#glyph-0-17" x="171.668802" y="31.340062"/>
<use xlink:href="#glyph-0-1" x="176.4129" y="31.340062"/>
<use xlink:href="#glyph-0-2" x="178.605715" y="31.340062"/>
<use xlink:href="#glyph-0-3" x="183.019057" y="31.340062"/>
</g>
<g fill="rgb(0%, 0%, 0%)" fill-opacity="1">
<use xlink:href="#glyph-0-18" x="190.829341" y="31.340062"/>
</g>
<g fill="rgb(0%, 0%, 0%)" fill-opacity="1">
<use xlink:href="#glyph-0-5" x="201.030894" y="31.340062"/>
<use xlink:href="#glyph-0-6" x="205.113481" y="31.340062"/>
<use xlink:href="#glyph-0-17" x="208.63468" y="31.340062"/>
<use xlink:href="#glyph-0-2" x="213.378777" y="31.340062"/>
<use xlink:href="#glyph-0-12" x="217.792119" y="31.340062"/>
<use xlink:href="#glyph-0-9" x="221.874707" y="31.340062"/>
<use xlink:href="#glyph-0-10" x="224.067522" y="31.340062"/>
<use xlink:href="#glyph-0-14" x="228.660545" y="31.340062"/>
</g>
<path fill-rule="nonzero" fill="rgb(90.979004%, 96.076965%, 91.372681%)" fill-opacity="1" stroke-width="0.79701" stroke-linecap="butt" stroke-linejoin="miter" stroke="rgb(26.275635%, 62.745667%, 27.842712%)" stroke-opacity="1" stroke-miterlimit="10" d="M 297.485819 13.466588 L 212.753354 13.466588 C 211.10384 13.466588 209.767774 12.126604 209.767774 10.477091 L 209.767774 -10.476818 C 209.767774 -12.126331 211.10384 -13.466315 212.753354 -13.466315 L 297.485819 -13.466315 C 299.139251 -13.466315 300.475317 -12.126331 300.475317 -10.476818 L 300.475317 10.477091 C 300.475317 12.126604 299.139251 13.466588 297.485819 13.466588 Z M 297.485819 13.466588 " transform="matrix(0.99698, 0, 0, -0.99698, 72.990753, 23.754042)"/>
<g fill="rgb(0%, 0%, 0%)" fill-opacity="1">
<use xlink:href="#glyph-0-15" x="293.470856" y="26.125857"/>
<use xlink:href="#glyph-0-6" x="298.987311" y="26.125857"/>
<use xlink:href="#glyph-0-17" x="302.508509" y="26.125857"/>
<use xlink:href="#glyph-0-2" x="307.252606" y="26.125857"/>
<use xlink:href="#glyph-0-12" x="311.665949" y="26.125857"/>
<use xlink:href="#glyph-0-9" x="315.748536" y="26.125857"/>
<use xlink:href="#glyph-0-10" x="317.941351" y="26.125857"/>
</g>
<g fill="rgb(0%, 0%, 0%)" fill-opacity="1">
<use xlink:href="#glyph-0-12" x="325.591622" y="26.125857"/>
<use xlink:href="#glyph-0-8" x="329.674209" y="26.125857"/>
<use xlink:href="#glyph-0-13" x="334.418306" y="26.125857"/>
<use xlink:href="#glyph-0-13" x="337.556008" y="26.125857"/>
<use xlink:href="#glyph-0-9" x="340.693709" y="26.125857"/>
<use xlink:href="#glyph-0-12" x="342.886525" y="26.125857"/>
<use xlink:href="#glyph-0-8" x="346.969112" y="26.125857"/>
<use xlink:href="#glyph-0-1" x="351.713209" y="26.125857"/>
<use xlink:href="#glyph-0-2" x="353.906025" y="26.125857"/>
</g>
<g fill="rgb(0%, 0%, 0%)" fill-opacity="1">
<use xlink:href="#glyph-0-13" x="358.069066" y="26.125857"/>
</g>
<path fill-rule="nonzero" fill="rgb(100%, 97.645569%, 76.861572%)" fill-opacity="1" stroke-width="0.79701" stroke-linecap="butt" stroke-linejoin="miter" stroke="rgb(70.196533%, 52.549744%, 0%)" stroke-opacity="1" stroke-miterlimit="10" d="M 179.183217 -46.064767 L 75.937808 -46.064767 C 74.288295 -46.064767 72.948311 -47.400833 72.948311 -49.054264 L 72.948311 -70.004255 C 72.948311 -71.653768 74.288295 -72.993752 75.937808 -72.993752 L 179.183217 -72.993752 C 180.83273 -72.993752 182.172715 -71.653768 182.172715 -70.004255 L 182.172715 -49.054264 C 182.172715 -47.400833 180.83273 -46.064767 179.183217 -46.064767 Z M 179.183217 -46.064767 " transform="matrix(0.99698, 0, 0, -0.99698, 72.990753, 23.754042)"/>
<g fill="rgb(0%, 0%, 0%)" fill-opacity="1">
<use xlink:href="#glyph-0-0" x="181.435244" y="79.624794"/>
<use xlink:href="#glyph-0-13" x="187.310165" y="79.624794"/>
<use xlink:href="#glyph-0-10" x="190.447866" y="79.624794"/>
<use xlink:href="#glyph-0-19" x="195.040889" y="79.624794"/>
<use xlink:href="#glyph-0-13" x="199.633912" y="79.624794"/>
<use xlink:href="#glyph-0-2" x="202.771613" y="79.624794"/>
<use xlink:href="#glyph-0-20" x="207.184956" y="79.624794"/>
<use xlink:href="#glyph-0-2" x="214.481229" y="79.624794"/>
</g>
<g fill="rgb(0%, 0%, 0%)" fill-opacity="1">
<use xlink:href="#glyph-0-11" x="149.027416" y="90.550696"/>
<use xlink:href="#glyph-0-13" x="152.599568" y="90.550696"/>
<use xlink:href="#glyph-0-5" x="155.73727" y="90.550696"/>
<use xlink:href="#glyph-0-1" x="159.819857" y="90.550696"/>
<use xlink:href="#glyph-0-2" x="162.012673" y="90.550696"/>
<use xlink:href="#glyph-0-12" x="166.426015" y="90.550696"/>
<use xlink:href="#glyph-0-9" x="170.508603" y="90.550696"/>
<use xlink:href="#glyph-0-21" x="172.701418" y="90.550696"/>
<use xlink:href="#glyph-0-3" x="177.294441" y="90.550696"/>
</g>
<g fill="rgb(0%, 0%, 0%)" fill-opacity="1">
<use xlink:href="#glyph-0-12" x="185.104725" y="90.550696"/>
</g>
<g fill="rgb(0%, 0%, 0%)" fill-opacity="1">
<use xlink:href="#glyph-0-8" x="189.178373" y="90.550696"/>
</g>
<g fill="rgb(0%, 0%, 0%)" fill-opacity="1">
<use xlink:href="#glyph-0-13" x="193.93141" y="90.550696"/>
<use xlink:href="#glyph-0-13" x="197.069111" y="90.550696"/>
<use xlink:href="#glyph-0-9" x="200.206813" y="90.550696"/>
<use xlink:href="#glyph-0-12" x="202.399628" y="90.550696"/>
</g>
<g fill="rgb(0%, 0%, 0%)" fill-opacity="1">
<use xlink:href="#glyph-0-8" x="206.473276" y="90.550696"/>
</g>
<g fill="rgb(0%, 0%, 0%)" fill-opacity="1">
<use xlink:href="#glyph-0-1" x="211.226313" y="90.550696"/>
<use xlink:href="#glyph-0-2" x="213.419128" y="90.550696"/>
</g>
<g fill="rgb(0%, 0%, 0%)" fill-opacity="1">
<use xlink:href="#glyph-0-13" x="217.57323" y="90.550696"/>
</g>
<g fill="rgb(0%, 0%, 0%)" fill-opacity="1">
<use xlink:href="#glyph-0-18" x="223.777118" y="90.550696"/>
</g>
<g fill="rgb(0%, 0%, 0%)" fill-opacity="1">
<use xlink:href="#glyph-0-2" x="233.978671" y="90.550696"/>
<use xlink:href="#glyph-0-22" x="238.392013" y="90.550696"/>
<use xlink:href="#glyph-0-10" x="243.13611" y="90.550696"/>
<use xlink:href="#glyph-0-14" x="247.729133" y="90.550696"/>
</g>
<path fill-rule="nonzero" fill="rgb(100%, 97.645569%, 76.861572%)" fill-opacity="1" stroke-width="0.79701" stroke-linecap="butt" stroke-linejoin="miter" stroke="rgb(70.196533%, 52.549744%, 0%)" stroke-opacity="1" stroke-miterlimit="10" d="M 42.367672 -105.592204 L -42.364794 -105.592204 C -44.018225 -105.592204 -45.354291 -106.92827 -45.354291 -108.581702 L -45.354291 -129.531692 C -45.354291 -131.181205 -44.018225 -132.521189 -42.364794 -132.521189 L 42.367672 -132.521189 C 44.017185 -132.521189 45.353251 -131.181205 45.353251 -129.531692 L 45.353251 -108.581702 C 45.353251 -106.92827 44.017185 -105.592204 42.367672 -105.592204 Z M 42.367672 -105.592204 " transform="matrix(0.99698, 0, 0, -0.99698, 72.990753, 23.754042)"/>
<g fill="rgb(0%, 0%, 0%)" fill-opacity="1">
<use xlink:href="#glyph-0-23" x="59.412884" y="145.689665"/>
<use xlink:href="#glyph-0-3" x="65.729408" y="145.689665"/>
<use xlink:href="#glyph-0-9" x="70.473505" y="145.689665"/>
<use xlink:href="#glyph-0-4" x="72.66632" y="145.689665"/>
<use xlink:href="#glyph-0-2" x="77.410417" y="145.689665"/>
<use xlink:href="#glyph-0-4" x="81.82376" y="145.689665"/>
</g>
<path fill-rule="nonzero" fill="rgb(100%, 97.645569%, 76.861572%)" fill-opacity="1" stroke-width="0.79701" stroke-linecap="butt" stroke-linejoin="miter" stroke="rgb(70.196533%, 52.549744%, 0%)" stroke-opacity="1" stroke-miterlimit="10" d="M 169.924787 -105.592204 L 85.196239 -105.592204 C 83.542808 -105.592204 82.206741 -106.92827 82.206741 -108.581702 L 82.206741 -129.531692 C 82.206741 -131.181205 83.542808 -132.521189 85.196239 -132.521189 L 169.924787 -132.521189 C 171.578218 -132.521189 172.914284 -131.181205 172.914284 -129.531692 L 172.914284 -108.581702 C 172.914284 -106.92827 171.578218 -105.592204 169.924787 -105.592204 Z M 169.924787 -105.592204 " transform="matrix(0.99698, 0, 0, -0.99698, 72.990753, 23.754042)"/>
<g fill="rgb(0%, 0%, 0%)" fill-opacity="1">
<use xlink:href="#glyph-0-24" x="182.262737" y="145.689665"/>
</g>
<g fill="rgb(0%, 0%, 0%)" fill-opacity="1">
<use xlink:href="#glyph-0-12" x="188.141234" y="145.689665"/>
<use xlink:href="#glyph-0-7" x="192.223821" y="145.689665"/>
<use xlink:href="#glyph-0-9" x="195.541203" y="145.689665"/>
<use xlink:href="#glyph-0-25" x="197.734019" y="145.689665"/>
<use xlink:href="#glyph-0-9" x="201.967681" y="145.689665"/>
<use xlink:href="#glyph-0-4" x="204.160496" y="145.689665"/>
<use xlink:href="#glyph-0-2" x="208.904593" y="145.689665"/>
<use xlink:href="#glyph-0-4" x="213.317936" y="145.689665"/>
</g>
<path fill-rule="nonzero" fill="rgb(98.823547%, 89.411926%, 92.547607%)" fill-opacity="1" stroke-width="0.79701" stroke-linecap="butt" stroke-linejoin="miter" stroke="rgb(84.70459%, 10.586548%, 37.644958%)" stroke-opacity="1" stroke-miterlimit="10" d="M 297.485819 -105.592204 L 212.753354 -105.592204 C 211.10384 -105.592204 209.767774 -106.92827 209.767774 -108.581702 L 209.767774 -129.531692 C 209.767774 -131.181205 211.10384 -132.521189 212.753354 -132.521189 L 297.485819 -132.521189 C 299.139251 -132.521189 300.475317 -131.181205 300.475317 -129.531692 L 300.475317 -108.581702 C 300.475317 -106.92827 299.139251 -105.592204 297.485819 -105.592204 Z M 297.485819 -105.592204 " transform="matrix(0.99698, 0, 0, -0.99698, 72.990753, 23.754042)"/>
<g fill="rgb(0%, 0%, 0%)" fill-opacity="1">
<use xlink:href="#glyph-0-26" x="304.093677" y="139.109598"/>
<use xlink:href="#glyph-0-27" x="310.734698" y="139.109598"/>
<use xlink:href="#glyph-0-2" x="312.927513" y="139.109598"/>
</g>
<g fill="rgb(0%, 0%, 0%)" fill-opacity="1">
<use xlink:href="#glyph-0-4" x="320.398103" y="139.109598"/>
</g>
<g fill="rgb(0%, 0%, 0%)" fill-opacity="1">
<use xlink:href="#glyph-0-5" x="325.151139" y="139.109598"/>
</g>
<g fill="rgb(0%, 0%, 0%)" fill-opacity="1">
<use xlink:href="#glyph-0-12" x="332.290974" y="139.109598"/>
<use xlink:href="#glyph-0-1" x="336.373562" y="139.109598"/>
<use xlink:href="#glyph-0-2" x="338.566377" y="139.109598"/>
<use xlink:href="#glyph-0-6" x="342.97972" y="139.109598"/>
<use xlink:href="#glyph-0-5" x="346.500918" y="139.109598"/>
</g>
<g fill="rgb(0%, 0%, 0%)" fill-opacity="1">
<use xlink:href="#glyph-0-11" x="297.694063" y="150.0355"/>
<use xlink:href="#glyph-0-13" x="301.266215" y="150.0355"/>
<use xlink:href="#glyph-0-5" x="304.403917" y="150.0355"/>
<use xlink:href="#glyph-0-19" x="308.486504" y="150.0355"/>
<use xlink:href="#glyph-0-1" x="313.079527" y="150.0355"/>
<use xlink:href="#glyph-0-2" x="315.272342" y="150.0355"/>
</g>
<g fill="rgb(0%, 0%, 0%)" fill-opacity="1">
<use xlink:href="#glyph-0-6" x="322.742932" y="150.0355"/>
<use xlink:href="#glyph-0-5" x="326.26413" y="150.0355"/>
<use xlink:href="#glyph-0-20" x="330.346718" y="150.0355"/>
<use xlink:href="#glyph-0-2" x="337.642991" y="150.0355"/>
<use xlink:href="#glyph-0-3" x="342.056334" y="150.0355"/>
<use xlink:href="#glyph-0-2" x="346.800431" y="150.0355"/>
<use xlink:href="#glyph-0-1" x="351.213773" y="150.0355"/>
<use xlink:href="#glyph-0-14" x="353.406588" y="150.0355"/>
</g>
<path fill-rule="nonzero" fill="rgb(90.979004%, 96.076965%, 91.372681%)" fill-opacity="1" stroke-width="0.79701" stroke-linecap="butt" stroke-linejoin="miter" stroke="rgb(26.275635%, 62.745667%, 27.842712%)" stroke-opacity="1" stroke-miterlimit="10" d="M 42.367672 -165.119641 L -42.364794 -165.119641 C -44.018225 -165.119641 -45.354291 -166.459626 -45.354291 -168.109139 L -45.354291 -189.059129 C -45.354291 -190.71256 -44.018225 -192.048627 -42.364794 -192.048627 L 42.367672 -192.048627 C 44.017185 -192.048627 45.353251 -190.71256 45.353251 -189.059129 L 45.353251 -168.109139 C 45.353251 -166.459626 44.017185 -165.119641 42.367672 -165.119641 Z M 42.367672 -165.119641 " transform="matrix(0.99698, 0, 0, -0.99698, 72.990753, 23.754042)"/>
<g fill="rgb(0%, 0%, 0%)" fill-opacity="1">
<use xlink:href="#glyph-0-16" x="48.154987" y="204.030933"/>
<use xlink:href="#glyph-0-10" x="54.023651" y="204.030933"/>
<use xlink:href="#glyph-0-20" x="58.616674" y="204.030933"/>
<use xlink:href="#glyph-0-17" x="65.912947" y="204.030933"/>
</g>
<g fill="rgb(0%, 0%, 0%)" fill-opacity="1">
<use xlink:href="#glyph-0-5" x="70.907345" y="204.030933"/>
<use xlink:href="#glyph-0-7" x="74.989933" y="204.030933"/>
<use xlink:href="#glyph-0-5" x="78.307315" y="204.030933"/>
<use xlink:href="#glyph-0-3" x="82.389902" y="204.030933"/>
<use xlink:href="#glyph-0-12" x="87.133999" y="204.030933"/>
<use xlink:href="#glyph-0-9" x="91.216587" y="204.030933"/>
<use xlink:href="#glyph-0-2" x="93.409402" y="204.030933"/>
</g>
<path fill-rule="nonzero" fill="rgb(88.233948%, 96.076965%, 99.607849%)" fill-opacity="1" stroke-width="0.79701" stroke-linecap="butt" stroke-linejoin="miter" stroke="rgb(0.782776%, 46.665955%, 74.116516%)" stroke-opacity="1" stroke-miterlimit="10" d="M 169.924787 -165.119641 L 85.196239 -165.119641 C 83.542808 -165.119641 82.206741 -166.459626 82.206741 -168.109139 L 82.206741 -189.059129 C 82.206741 -190.71256 83.542808 -192.048627 85.196239 -192.048627 L 169.924787 -192.048627 C 171.578218 -192.048627 172.914284 -190.71256 172.914284 -189.059129 L 172.914284 -168.109139 C 172.914284 -166.459626 171.578218 -165.119641 169.924787 -165.119641 Z M 169.924787 -165.119641 " transform="matrix(0.99698, 0, 0, -0.99698, 72.990753, 23.754042)"/>
<g fill="rgb(0%, 0%, 0%)" fill-opacity="1">
<use xlink:href="#glyph-0-24" x="163.396887" y="204.169513"/>
<use xlink:href="#glyph-0-28" x="169.534624" y="204.169513"/>
<use xlink:href="#glyph-0-8" x="171.983104" y="204.169513"/>
<use xlink:href="#glyph-0-6" x="176.727201" y="204.169513"/>
<use xlink:href="#glyph-0-7" x="180.2484" y="204.169513"/>
<use xlink:href="#glyph-0-5" x="183.565781" y="204.169513"/>
</g>
<g fill="rgb(0%, 0%, 0%)" fill-opacity="1">
<use xlink:href="#glyph-0-4" x="190.705616" y="204.169513"/>
<use xlink:href="#glyph-0-5" x="195.449714" y="204.169513"/>
</g>
<g fill="rgb(0%, 0%, 0%)" fill-opacity="1">
<use xlink:href="#glyph-0-2" x="202.598488" y="204.169513"/>
<use xlink:href="#glyph-0-12" x="207.011831" y="204.169513"/>
<use xlink:href="#glyph-0-7" x="211.094418" y="204.169513"/>
<use xlink:href="#glyph-0-9" x="214.4118" y="204.169513"/>
<use xlink:href="#glyph-0-25" x="216.604615" y="204.169513"/>
<use xlink:href="#glyph-0-9" x="220.838277" y="204.169513"/>
<use xlink:href="#glyph-0-4" x="223.031092" y="204.169513"/>
<use xlink:href="#glyph-0-2" x="227.77519" y="204.169513"/>
<use xlink:href="#glyph-0-4" x="232.188532" y="204.169513"/>
</g>
<path fill-rule="nonzero" fill="rgb(98.823547%, 89.411926%, 92.547607%)" fill-opacity="1" stroke-width="0.79701" stroke-linecap="butt" stroke-linejoin="miter" stroke="rgb(84.70459%, 10.586548%, 37.644958%)" stroke-opacity="1" stroke-miterlimit="10" d="M 297.485819 -165.119641 L 212.753354 -165.119641 C 211.10384 -165.119641 209.767774 -166.459626 209.767774 -168.109139 L 209.767774 -189.059129 C 209.767774 -190.71256 211.10384 -192.048627 212.753354 -192.048627 L 297.485819 -192.048627 C 299.139251 -192.048627 300.475317 -190.71256 300.475317 -189.059129 L 300.475317 -168.109139 C 300.475317 -166.459626 299.139251 -165.119641 297.485819 -165.119641 Z M 297.485819 -165.119641 " transform="matrix(0.99698, 0, 0, -0.99698, 72.990753, 23.754042)"/>
<g fill="rgb(0%, 0%, 0%)" fill-opacity="1">
<use xlink:href="#glyph-0-16" x="290.653391" y="198.457815"/>
<use xlink:href="#glyph-0-1" x="296.522055" y="198.457815"/>
<use xlink:href="#glyph-0-2" x="298.71487" y="198.457815"/>
<use xlink:href="#glyph-0-6" x="303.128212" y="198.457815"/>
<use xlink:href="#glyph-0-5" x="306.649411" y="198.457815"/>
</g>
<g fill="rgb(0%, 0%, 0%)" fill-opacity="1">
<use xlink:href="#glyph-0-4" x="313.789246" y="198.457815"/>
<use xlink:href="#glyph-0-5" x="318.533343" y="198.457815"/>
</g>
<g fill="rgb(0%, 0%, 0%)" fill-opacity="1">
<use xlink:href="#glyph-0-12" x="325.682117" y="198.457815"/>
<use xlink:href="#glyph-0-2" x="329.764705" y="198.457815"/>
<use xlink:href="#glyph-0-1" x="334.178047" y="198.457815"/>
<use xlink:href="#glyph-0-5" x="336.370863" y="198.457815"/>
<use xlink:href="#glyph-0-3" x="340.45345" y="198.457815"/>
<use xlink:href="#glyph-0-4" x="345.197547" y="198.457815"/>
<use xlink:href="#glyph-0-2" x="349.941645" y="198.457815"/>
</g>
<g fill="rgb(0%, 0%, 0%)" fill-opacity="1">
<use xlink:href="#glyph-0-13" x="354.095747" y="198.457815"/>
<use xlink:href="#glyph-0-9" x="357.233448" y="198.457815"/>
<use xlink:href="#glyph-0-10" x="359.426264" y="198.457815"/>
</g>
<g fill="rgb(0%, 0%, 0%)" fill-opacity="1">
<use xlink:href="#glyph-0-11" x="295.944363" y="209.383717"/>
<use xlink:href="#glyph-0-29" x="299.516515" y="209.383717"/>
<use xlink:href="#glyph-0-5" x="302.323462" y="209.383717"/>
<use xlink:href="#glyph-0-12" x="306.40605" y="209.383717"/>
<use xlink:href="#glyph-0-30" x="310.488637" y="209.383717"/>
<use xlink:href="#glyph-0-2" x="315.232734" y="209.383717"/>
</g>
<g fill="rgb(0%, 0%, 0%)" fill-opacity="1">
<use xlink:href="#glyph-0-12" x="322.703324" y="209.383717"/>
<use xlink:href="#glyph-0-10" x="326.785912" y="209.383717"/>
<use xlink:href="#glyph-0-3" x="331.378935" y="209.383717"/>
<use xlink:href="#glyph-0-12" x="336.123032" y="209.383717"/>
<use xlink:href="#glyph-0-13" x="340.20562" y="209.383717"/>
<use xlink:href="#glyph-0-5" x="343.343321" y="209.383717"/>
<use xlink:href="#glyph-0-7" x="347.425909" y="209.383717"/>
<use xlink:href="#glyph-0-2" x="350.74329" y="209.383717"/>
<use xlink:href="#glyph-0-14" x="355.156633" y="209.383717"/>
</g>
<path fill-rule="nonzero" fill="rgb(90.979004%, 96.076965%, 91.372681%)" fill-opacity="1" d="M 115.230469 259.027344 L 30.753906 259.027344 C 29.105469 259.027344 27.773438 260.363281 27.773438 262.007812 L 27.773438 282.898438 C 27.773438 284.542969 29.105469 285.875 30.753906 285.875 L 115.230469 285.875 C 116.875 285.875 118.207031 284.542969 118.207031 282.898438 L 118.207031 262.007812 C 118.207031 260.363281 116.875 259.027344 115.230469 259.027344 Z M 115.230469 259.027344 "/>
<g clip-path="url(#clip-0)">
<path fill="none" stroke-width="0.79701" stroke-linecap="butt" stroke-linejoin="miter" stroke="rgb(26.275635%, 62.745667%, 27.842712%)" stroke-opacity="1" stroke-miterlimit="10" d="M 42.367672 -235.986011 L -42.364794 -235.986011 C -44.018225 -235.986011 -45.354291 -237.325995 -45.354291 -238.975508 L -45.354291 -259.929417 C -45.354291 -261.57893 -44.018225 -262.914996 -42.364794 -262.914996 L 42.367672 -262.914996 C 44.017185 -262.914996 45.353251 -261.57893 45.353251 -259.929417 L 45.353251 -238.975508 C 45.353251 -237.325995 44.017185 -235.986011 42.367672 -235.986011 Z M 42.367672 -235.986011 " transform="matrix(0.99698, 0, 0, -0.99698, 72.990753, 23.754042)"/>
</g>
<g fill="rgb(0%, 0%, 0%)" fill-opacity="1">
<use xlink:href="#glyph-0-23" x="42.178093" y="275.689857"/>
<use xlink:href="#glyph-0-6" x="48.494617" y="275.689857"/>
<use xlink:href="#glyph-0-8" x="52.015815" y="275.689857"/>
<use xlink:href="#glyph-0-2" x="56.759912" y="275.689857"/>
</g>
<g fill="rgb(0%, 0%, 0%)" fill-opacity="1">
<use xlink:href="#glyph-0-13" x="60.914014" y="275.689857"/>
<use xlink:href="#glyph-0-9" x="64.051716" y="275.689857"/>
<use xlink:href="#glyph-0-10" x="66.244531" y="275.689857"/>
</g>
<g fill="rgb(0%, 0%, 0%)" fill-opacity="1">
<use xlink:href="#glyph-0-4" x="73.903741" y="275.689857"/>
<use xlink:href="#glyph-0-10" x="78.647838" y="275.689857"/>
</g>
<g fill="rgb(0%, 0%, 0%)" fill-opacity="1">
<use xlink:href="#glyph-0-12" x="83.491162" y="275.689857"/>
<use xlink:href="#glyph-0-5" x="87.573749" y="275.689857"/>
<use xlink:href="#glyph-0-3" x="91.656337" y="275.689857"/>
<use xlink:href="#glyph-0-7" x="96.400434" y="275.689857"/>
<use xlink:href="#glyph-0-5" x="99.717816" y="275.689857"/>
</g>
<path fill-rule="nonzero" fill="rgb(88.233948%, 96.076965%, 99.607849%)" fill-opacity="1" d="M 242.402344 259.027344 L 157.929688 259.027344 C 156.28125 259.027344 154.949219 260.363281 154.949219 262.007812 L 154.949219 282.898438 C 154.949219 284.542969 156.28125 285.875 157.929688 285.875 L 242.402344 285.875 C 244.050781 285.875 245.382812 284.542969 245.382812 282.898438 L 245.382812 262.007812 C 245.382812 260.363281 244.050781 259.027344 242.402344 259.027344 Z M 242.402344 259.027344 "/>
<g clip-path="url(#clip-1)">
<path fill="none" stroke-width="0.79701" stroke-linecap="butt" stroke-linejoin="miter" stroke="rgb(0.782776%, 46.665955%, 74.116516%)" stroke-opacity="1" stroke-miterlimit="10" d="M 169.924787 -235.986011 L 85.196239 -235.986011 C 83.542808 -235.986011 82.206741 -237.325995 82.206741 -238.975508 L 82.206741 -259.929417 C 82.206741 -261.57893 83.542808 -262.914996 85.196239 -262.914996 L 169.924787 -262.914996 C 171.578218 -262.914996 172.914284 -261.57893 172.914284 -259.929417 L 172.914284 -238.975508 C 172.914284 -237.325995 171.578218 -235.986011 169.924787 -235.986011 Z M 169.924787 -235.986011 " transform="matrix(0.99698, 0, 0, -0.99698, 72.990753, 23.754042)"/>
</g>
<g fill="rgb(0%, 0%, 0%)" fill-opacity="1">
<use xlink:href="#glyph-0-24" x="163.075859" y="269.10979"/>
<use xlink:href="#glyph-0-6" x="169.213597" y="269.10979"/>
<use xlink:href="#glyph-0-9" x="172.734795" y="269.10979"/>
<use xlink:href="#glyph-0-19" x="174.92761" y="269.10979"/>
<use xlink:href="#glyph-0-3" x="179.520633" y="269.10979"/>
<use xlink:href="#glyph-0-2" x="184.26473" y="269.10979"/>
<use xlink:href="#glyph-0-12" x="188.678073" y="269.10979"/>
<use xlink:href="#glyph-0-9" x="192.76066" y="269.10979"/>
<use xlink:href="#glyph-0-21" x="194.953475" y="269.10979"/>
<use xlink:href="#glyph-0-3" x="199.546498" y="269.10979"/>
</g>
<g fill="rgb(0%, 0%, 0%)" fill-opacity="1">
<use xlink:href="#glyph-0-4" x="207.347843" y="269.10979"/>
</g>
<g fill="rgb(0%, 0%, 0%)" fill-opacity="1">
<use xlink:href="#glyph-0-10" x="212.10088" y="269.10979"/>
</g>
<g fill="rgb(0%, 0%, 0%)" fill-opacity="1">
<use xlink:href="#glyph-0-12" x="216.944203" y="269.10979"/>
<use xlink:href="#glyph-0-5" x="221.026791" y="269.10979"/>
<use xlink:href="#glyph-0-3" x="225.109378" y="269.10979"/>
<use xlink:href="#glyph-0-7" x="229.853476" y="269.10979"/>
<use xlink:href="#glyph-0-5" x="233.170857" y="269.10979"/>
</g>
<g fill="rgb(0%, 0%, 0%)" fill-opacity="1">
<use xlink:href="#glyph-0-11" x="162.025043" y="280.035693"/>
<use xlink:href="#glyph-0-29" x="165.597195" y="280.035693"/>
<use xlink:href="#glyph-0-5" x="168.404142" y="280.035693"/>
<use xlink:href="#glyph-0-12" x="172.486729" y="280.035693"/>
<use xlink:href="#glyph-0-30" x="176.569317" y="280.035693"/>
<use xlink:href="#glyph-0-2" x="181.313414" y="280.035693"/>
<use xlink:href="#glyph-0-6" x="185.726756" y="280.035693"/>
</g>
<g fill="rgb(0%, 0%, 0%)" fill-opacity="1">
<use xlink:href="#glyph-0-4" x="192.305202" y="280.035693"/>
<use xlink:href="#glyph-0-5" x="197.049299" y="280.035693"/>
</g>
<g fill="rgb(0%, 0%, 0%)" fill-opacity="1">
<use xlink:href="#glyph-0-25" x="204.198074" y="280.035693"/>
<use xlink:href="#glyph-0-9" x="208.431736" y="280.035693"/>
<use xlink:href="#glyph-0-19" x="210.624551" y="280.035693"/>
<use xlink:href="#glyph-0-5" x="215.217574" y="280.035693"/>
<use xlink:href="#glyph-0-3" x="219.300162" y="280.035693"/>
<use xlink:href="#glyph-0-12" x="224.044259" y="280.035693"/>
<use xlink:href="#glyph-0-9" x="228.126846" y="280.035693"/>
<use xlink:href="#glyph-0-2" x="230.319662" y="280.035693"/>
<use xlink:href="#glyph-0-14" x="234.733004" y="280.035693"/>
</g>
<path fill="none" stroke-width="0.89664" stroke-linecap="butt" stroke-linejoin="miter" stroke="rgb(29.998779%, 29.998779%, 29.998779%)" stroke-opacity="1" stroke-miterlimit="10" d="M 46.947911 0.000136444 L 75.248226 0.000136444 " transform="matrix(0.99698, 0, 0, -0.99698, 72.990753, 23.754042)"/>
<path fill-rule="nonzero" fill="rgb(29.998779%, 29.998779%, 29.998779%)" fill-opacity="1" stroke-width="0.89664" stroke-linecap="butt" stroke-linejoin="miter" stroke="rgb(29.998779%, 29.998779%, 29.998779%)" stroke-opacity="1" stroke-miterlimit="10" d="M 7.203578 0.000136444 L 1.467504 2.115901 L 3.363857 0.000136444 L 1.467504 -2.115628 Z M 7.203578 0.000136444 " transform="matrix(0.99698, 0, 0, -0.99698, 144.880678, 23.754042)"/>
<path fill="none" stroke-width="0.89664" stroke-linecap="butt" stroke-linejoin="miter" stroke="rgb(29.998779%, 29.998779%, 29.998779%)" stroke-opacity="1" stroke-miterlimit="10" d="M 208.173114 0.000136444 L 179.876718 0.000136444 " transform="matrix(0.99698, 0, 0, -0.99698, 72.990753, 23.754042)"/>
<path fill-rule="nonzero" fill="rgb(29.998779%, 29.998779%, 29.998779%)" fill-opacity="1" stroke-width="0.89664" stroke-linecap="butt" stroke-linejoin="miter" stroke="rgb(29.998779%, 29.998779%, 29.998779%)" stroke-opacity="1" stroke-miterlimit="10" d="M 7.199884 -0.000136444 L 1.467729 2.115628 L 3.364081 -0.000136444 L 1.467729 -2.115901 Z M 7.199884 -0.000136444 " transform="matrix(-0.99698, 0, 0, 0.99698, 255.451577, 23.754042)"/>
<path fill="none" stroke-width="0.89664" stroke-linecap="butt" stroke-linejoin="miter" stroke="rgb(29.998779%, 29.998779%, 29.998779%)" stroke-opacity="1" stroke-miterlimit="10" d="M 127.562472 -15.057057 L 127.562472 -39.106251 " transform="matrix(0.99698, 0, 0, -0.99698, 72.990753, 23.754042)"/>
<path fill-rule="nonzero" fill="rgb(29.998779%, 29.998779%, 29.998779%)" fill-opacity="1" stroke-width="0.89664" stroke-linecap="butt" stroke-linejoin="miter" stroke="rgb(29.998779%, 29.998779%, 29.998779%)" stroke-opacity="1" stroke-miterlimit="10" d="M 7.203604 0.00185185 L 1.46753 2.117617 L 3.363882 0.00185185 L 1.46753 -2.117831 Z M 7.203604 0.00185185 " transform="matrix(0, 0.99698, 0.99698, 0, 200.166122, 59.611121)"/>
<path fill="none" stroke-width="0.89664" stroke-linecap="butt" stroke-linejoin="miter" stroke="rgb(29.998779%, 29.998779%, 29.998779%)" stroke-opacity="1" stroke-miterlimit="10" d="M 127.562472 -74.588412 L 127.562472 -98.633688 " transform="matrix(0.99698, 0, 0, -0.99698, 72.990753, 23.754042)"/>
<path fill-rule="nonzero" fill="rgb(29.998779%, 29.998779%, 29.998779%)" fill-opacity="1" stroke-width="0.89664" stroke-linecap="butt" stroke-linejoin="miter" stroke="rgb(29.998779%, 29.998779%, 29.998779%)" stroke-opacity="1" stroke-miterlimit="10" d="M 7.203001 0.00185185 L 1.466927 2.117617 L 3.363279 0.00185185 L 1.466927 -2.117831 Z M 7.203001 0.00185185 " transform="matrix(0, 0.99698, 0.99698, 0, 200.166122, 118.959378)"/>
<path fill="none" stroke-width="0.89664" stroke-linecap="butt" stroke-linejoin="miter" stroke="rgb(29.998779%, 29.998779%, 29.998779%)" stroke-opacity="1" stroke-miterlimit="10" d="M 127.562472 -74.588412 L 127.562472 -89.292978 L 0.00143916 -89.292978 L 0.00143916 -98.633688 " transform="matrix(0.99698, 0, 0, -0.99698, 72.990753, 23.754042)"/>
<path fill-rule="nonzero" fill="rgb(29.998779%, 29.998779%, 29.998779%)" fill-opacity="1" stroke-width="0.89664" stroke-linecap="butt" stroke-linejoin="miter" stroke="rgb(29.998779%, 29.998779%, 29.998779%)" stroke-opacity="1" stroke-miterlimit="10" d="M 7.203001 0.00143916 L 1.466927 2.117204 L 3.363279 0.00143916 L 1.466927 -2.118244 Z M 7.203001 0.00143916 " transform="matrix(0, 0.99698, 0.99698, 0, 72.990753, 118.959378)"/>
<path fill="none" stroke-width="0.89664" stroke-linecap="butt" stroke-linejoin="miter" stroke="rgb(29.998779%, 29.998779%, 29.998779%)" stroke-opacity="1" stroke-miterlimit="10" d="M 127.562472 -74.588412 L 127.562472 -89.292978 L 255.119586 -89.292978 L 255.119586 -98.633688 " transform="matrix(0.99698, 0, 0, -0.99698, 72.990753, 23.754042)"/>
<path fill-rule="nonzero" fill="rgb(29.998779%, 29.998779%, 29.998779%)" fill-opacity="1" stroke-width="0.89664" stroke-linecap="butt" stroke-linejoin="miter" stroke="rgb(29.998779%, 29.998779%, 29.998779%)" stroke-opacity="1" stroke-miterlimit="10" d="M 7.203001 -0.00169354 L 1.466927 2.117989 L 3.363279 -0.00169354 L 1.466927 -2.117458 Z M 7.203001 -0.00169354 " transform="matrix(0, 0.99698, 0.99698, 0, 327.341532, 118.959378)"/>
<path fill="none" stroke-width="0.89664" stroke-linecap="butt" stroke-linejoin="miter" stroke="rgb(29.998779%, 29.998779%, 29.998779%)" stroke-opacity="1" stroke-dasharray="2.98883 2.98883" stroke-miterlimit="10" d="M 46.947911 -119.054738 L 80.612082 -119.054738 " transform="matrix(0.99698, 0, 0, -0.99698, 72.990753, 23.754042)"/>
<g fill="rgb(19.999695%, 19.999695%, 19.999695%)" fill-opacity="1">
<use xlink:href="#glyph-1-0" x="129.722895" y="137.797572"/>
<use xlink:href="#glyph-1-1" x="136.167388" y="137.797572"/>
<use xlink:href="#glyph-1-2" x="138.219141" y="137.797572"/>
</g>
<path fill="none" stroke-width="0.89664" stroke-linecap="butt" stroke-linejoin="miter" stroke="rgb(29.998779%, 29.998779%, 29.998779%)" stroke-opacity="1" stroke-dasharray="2.98883 2.98883" stroke-miterlimit="10" d="M 0.00143916 -134.115849 L 0.00143916 -163.524981 " transform="matrix(0.99698, 0, 0, -0.99698, 72.990753, 23.754042)"/>
<g fill="rgb(19.999695%, 19.999695%, 19.999695%)" fill-opacity="1">
<use xlink:href="#glyph-1-3" x="82.151004" y="169.754765"/>
<use xlink:href="#glyph-1-4" x="87.21955" y="169.754765"/>
<use xlink:href="#glyph-1-5" x="91.033127" y="169.754765"/>
<use xlink:href="#glyph-1-6" x="92.794951" y="169.754765"/>
<use xlink:href="#glyph-1-7" x="96.608527" y="169.754765"/>
<use xlink:href="#glyph-1-6" x="100.15651" y="169.754765"/>
<use xlink:href="#glyph-1-8" x="103.970087" y="169.754765"/>
<use xlink:href="#glyph-1-9" x="108.68891" y="169.754765"/>
<use xlink:href="#glyph-1-10" x="112.381509" y="169.754765"/>
<use xlink:href="#glyph-1-11" x="118.246144" y="169.754765"/>
</g>
<g fill="rgb(19.999695%, 19.999695%, 19.999695%)" fill-opacity="1">
<use xlink:href="#glyph-1-12" x="122.26135" y="169.754765"/>
<use xlink:href="#glyph-1-13" x="125.543738" y="169.754765"/>
<use xlink:href="#glyph-1-12" x="128.210808" y="169.754765"/>
<use xlink:href="#glyph-1-4" x="131.493196" y="169.754765"/>
<use xlink:href="#glyph-1-14" x="135.306773" y="169.754765"/>
<use xlink:href="#glyph-1-5" x="138.589161" y="169.754765"/>
<use xlink:href="#glyph-1-7" x="140.350985" y="169.754765"/>
</g>
<g fill="rgb(19.999695%, 19.999695%, 19.999695%)" fill-opacity="1">
<use xlink:href="#glyph-1-15" x="103.299938" y="177.700694"/>
<use xlink:href="#glyph-1-0" x="106.172114" y="177.700694"/>
<use xlink:href="#glyph-1-1" x="112.616607" y="177.700694"/>
<use xlink:href="#glyph-1-2" x="114.66836" y="177.700694"/>
<use xlink:href="#glyph-1-16" x="119.881523" y="177.700694"/>
</g>
<path fill="none" stroke-width="0.89664" stroke-linecap="butt" stroke-linejoin="miter" stroke="rgb(29.998779%, 29.998779%, 29.998779%)" stroke-opacity="1" stroke-miterlimit="10" d="M -46.948951 0.000136444 L -62.36269 0.000136444 L -62.36269 -178.586093 L -52.312807 -178.586093 " transform="matrix(0.99698, 0, 0, -0.99698, 72.990753, 23.754042)"/>
<path fill-rule="nonzero" fill="rgb(29.998779%, 29.998779%, 29.998779%)" fill-opacity="1" stroke-width="0.89664" stroke-linecap="butt" stroke-linejoin="miter" stroke="rgb(29.998779%, 29.998779%, 29.998779%)" stroke-opacity="1" stroke-miterlimit="10" d="M 7.203155 -0.00111294 L 1.467082 2.114652 L 3.363434 -0.00111294 L 1.467082 -2.116878 Z M 7.203155 -0.00111294 " transform="matrix(0.99698, 0, 0, -0.99698, 17.705318, 201.799672)"/>
<path fill="none" stroke-width="0.89664" stroke-linecap="butt" stroke-linejoin="miter" stroke="rgb(29.998779%, 29.998779%, 29.998779%)" stroke-opacity="1" stroke-miterlimit="10" d="M 127.562472 -134.115849 L 127.562472 -158.161126 " transform="matrix(0.99698, 0, 0, -0.99698, 72.990753, 23.754042)"/>
<path fill-rule="nonzero" fill="rgb(29.998779%, 29.998779%, 29.998779%)" fill-opacity="1" stroke-width="0.89664" stroke-linecap="butt" stroke-linejoin="miter" stroke="rgb(29.998779%, 29.998779%, 29.998779%)" stroke-opacity="1" stroke-miterlimit="10" d="M 7.201958 0.00185185 L 1.469802 2.117617 L 3.362236 0.00185185 L 1.469802 -2.117831 Z M 7.201958 0.00185185 " transform="matrix(0, 0.99698, 0.99698, 0, 200.166122, 178.308074)"/>
<path fill="none" stroke-width="0.89664" stroke-linecap="butt" stroke-linejoin="miter" stroke="rgb(29.998779%, 29.998779%, 29.998779%)" stroke-opacity="1" stroke-miterlimit="10" d="M 255.119586 -134.115849 L 255.119586 -158.161126 " transform="matrix(0.99698, 0, 0, -0.99698, 72.990753, 23.754042)"/>
<path fill-rule="nonzero" fill="rgb(29.998779%, 29.998779%, 29.998779%)" fill-opacity="1" stroke-width="0.89664" stroke-linecap="butt" stroke-linejoin="miter" stroke="rgb(29.998779%, 29.998779%, 29.998779%)" stroke-opacity="1" stroke-miterlimit="10" d="M 7.201958 -0.00169354 L 1.469802 2.117989 L 3.362236 -0.00169354 L 1.469802 -2.117458 Z M 7.201958 -0.00169354 " transform="matrix(0, 0.99698, 0.99698, 0, 327.341532, 178.308074)"/>
<path fill="none" stroke-width="0.89664" stroke-linecap="butt" stroke-linejoin="miter" stroke="rgb(29.998779%, 29.998779%, 29.998779%)" stroke-opacity="1" stroke-miterlimit="10" d="M 208.173114 -178.586093 L 195.592149 -178.586093 L 195.592149 -119.054738 L 179.876718 -119.054738 " transform="matrix(0.99698, 0, 0, -0.99698, 72.990753, 23.754042)"/>
<path fill-rule="nonzero" fill="rgb(29.998779%, 29.998779%, 29.998779%)" fill-opacity="1" stroke-width="0.89664" stroke-linecap="butt" stroke-linejoin="miter" stroke="rgb(29.998779%, 29.998779%, 29.998779%)" stroke-opacity="1" stroke-miterlimit="10" d="M 7.199884 -0.00176224 L 1.467729 2.117921 L 3.364081 -0.00176224 L 1.467729 -2.117527 Z M 7.199884 -0.00176224 " transform="matrix(-0.99698, 0, 0, 0.99698, 255.451577, 142.450976)"/>
<path fill="none" stroke-width="0.89664" stroke-linecap="butt" stroke-linejoin="miter" stroke="rgb(29.998779%, 29.998779%, 29.998779%)" stroke-opacity="1" stroke-miterlimit="10" d="M 46.947911 -249.452463 L 75.248226 -249.452463 " transform="matrix(0.99698, 0, 0, -0.99698, 72.990753, 23.754042)"/>
<path fill-rule="nonzero" fill="rgb(29.998779%, 29.998779%, 29.998779%)" fill-opacity="1" stroke-width="0.89664" stroke-linecap="butt" stroke-linejoin="miter" stroke="rgb(29.998779%, 29.998779%, 29.998779%)" stroke-opacity="1" stroke-miterlimit="10" d="M 7.203578 -0.000462639 L 1.467504 2.115302 L 3.363857 -0.000462639 L 1.467504 -2.116228 Z M 7.203578 -0.000462639 " transform="matrix(0.99698, 0, 0, -0.99698, 144.880678, 272.452664)"/>
<path fill="none" stroke-width="0.89664" stroke-linecap="butt" stroke-linejoin="miter" stroke="rgb(29.998779%, 29.998779%, 29.998779%)" stroke-opacity="1" stroke-miterlimit="10" d="M 302.069977 0.000136444 L 317.483716 0.000136444 L 317.483716 -249.452463 L 179.876718 -249.452463 " transform="matrix(0.99698, 0, 0, -0.99698, 72.990753, 23.754042)"/>
<path fill-rule="nonzero" fill="rgb(29.998779%, 29.998779%, 29.998779%)" fill-opacity="1" stroke-width="0.89664" stroke-linecap="butt" stroke-linejoin="miter" stroke="rgb(29.998779%, 29.998779%, 29.998779%)" stroke-opacity="1" stroke-miterlimit="10" d="M 7.199884 0.000462639 L 1.467729 2.116228 L 3.364081 0.000462639 L 1.467729 -2.115302 Z M 7.199884 0.000462639 " transform="matrix(-0.99698, 0, 0, 0.99698, 255.451577, 272.452664)"/>
</svg>
